<?xml version="1.0" encoding="utf-8"?>
<!-- Generator: Adobe Illustrator 18.1.1, SVG Export Plug-In . SVG Version: 6.00 Build 0)  -->
<svg version="1.1" id="Слой_1" xmlns="http://www.w3.org/2000/svg" xmlns:xlink="http://www.w3.org/1999/xlink" x="0px" y="0px"
	 viewBox="0 0 619 132.9" enable-background="new 0 0 619 132.9" xml:space="preserve">
<g>
	<path fill="#755346" d="M105.5,3.5H35.1L0,64.4l35.1,60.9h70.3l35.1-60.9L105.5,3.5z M87.9,94.8H52.7L35.1,64.4l17.6-30.4h35.1
		l17.6,30.4L87.9,94.8z"/>
	<path fill="#CA5B52" d="M87.9,34l17.6,30.4L87.9,94.8h0l17.6,30.4l35.1-60.8L105.4,3.5h-0.2L87.7,33.9"/>
	<path fill="#C1CE57" d="M52.7,94.8L35.2,64.3l17.5-30.4h0L35.1,3.5L0,64.3l35.2,60.9h0.2l17.5-30.4"/>
</g>
<g>
	<path fill="#FFFFFF" d="M228.9,58.8l0.2,0.3c0.1,9-2.1,15.8-6.4,20.3c-4.3,4.6-10.7,6.8-19.2,6.8c-8.5,0-15.2-2.6-20.3-7.8
		c-5.1-5.2-7.6-12.5-7.6-22V32.1c0-9.5,2.4-16.8,7.3-22c4.9-5.2,11.4-7.8,19.6-7.8c8.7,0,15.2,2.3,19.7,7c4.4,4.6,6.7,11.5,6.9,20.6
		l-0.2,0.3h-15.4c0.2-5.4-0.5-9.2-2.2-11.6c-1.7-2.4-4.6-3.6-8.8-3.6c-3.6,0-6.3,1.4-8.3,4.2c-1.9,2.8-2.9,7.1-2.9,12.8v24.6
		c0,5.8,1,10.1,3.1,12.9c2,2.8,5,4.2,9,4.2c3.9,0,6.5-1.1,8.1-3.3c1.5-2.2,2.2-6,2-11.4H228.9z"/>
	<path fill="#FFFFFF" d="M295.9,85.1H280l-25-52.3l-0.3,0.1v52.2h-16V3.4h16l25,52.2l0.3-0.1V3.4h15.9V85.1z"/>
	<path fill="#FFFFFF" d="M346.1,67.7h-21.6l-4.4,17.5h-16.1l23-81.7h16.6l23,81.7h-16.1L346.1,67.7z M327.8,54.9h15L335.5,26h-0.3
		L327.8,54.9z"/>
	<path fill="#FFFFFF" d="M393.5,3.4l14.7,60h0.3l14.8-60h20.8v81.7h-15.9V61.4l1.3-31.8l-0.3-0.1l-15.6,55.6H403L387.6,30l-0.3,0.1
		l1.4,31.3v23.7h-15.9V3.4H393.5z"/>
	<path fill="#FFFFFF" d="M497.4,55.8v29.4h-16V3.4h28.4c8.2,0,14.6,2.4,19.3,7.2c4.7,4.8,7.1,11.1,7.1,19c0,7.9-2.4,14.2-7.1,19
		c-4.7,4.8-11.2,7.2-19.3,7.2H497.4z M497.4,43h12.4c3.4,0,6-1.3,7.8-3.8c1.8-2.5,2.7-5.7,2.7-9.6c0-3.9-0.9-7.1-2.7-9.7
		c-1.8-2.6-4.4-3.9-7.8-3.9h-12.4V43z"/>
	<path fill="#FFFFFF" d="M589.6,10.7c8.6,0.1,15.7,3.2,21.2,9.4c5.5,6.2,8.2,14.4,8.2,24.5c0,10-2.7,18-8.2,24.1
		c-5.5,6.1-12.5,9.2-21.2,9.2v10.6h-15.9V77.9h-0.1c-8.7,0-15.8-3-21.3-9.1s-8.2-14.1-8.2-24c0-10.2,2.7-18.4,8.2-24.7
		c5.5-6.3,12.6-9.4,21.3-9.4h0.1V0h15.9V10.7z M573.6,24.3c-4.3,0-7.7,1.8-10.2,5.3c-2.5,3.6-3.8,8.6-3.8,15.1
		c0,6.3,1.3,11.1,3.8,14.4c2.5,3.3,5.9,5,10.2,5h0.1L573.6,24.3L573.6,24.3z M603.3,44.6c0-6.5-1.2-11.5-3.7-14.9
		c-2.5-3.5-5.7-5.1-9.7-4.9l-0.3,0.1v38.7l0.3,0.1c4,0.3,7.3-1.3,9.7-4.7C602.1,55.6,603.3,50.8,603.3,44.6z"/>
</g>
<g>
	<path fill="#FFFFFF" d="M177.7,114.6v10.9h-2.2V99.2h7.8c2.3,0,4.1,0.7,5.3,2.1c1.3,1.4,1.9,3.3,1.9,5.6c0,2.3-0.6,4.2-1.9,5.6
		c-1.3,1.4-3,2.1-5.3,2.1H177.7z M177.7,112.7h5.6c1.7,0,2.9-0.5,3.8-1.6c0.8-1.1,1.3-2.5,1.3-4.1c0-1.7-0.4-3.1-1.3-4.2
		c-0.8-1.1-2.1-1.6-3.8-1.6h-5.6V112.7z"/>
	<path fill="#FFFFFF" d="M204.4,125.5c-0.1-0.7-0.2-1.2-0.2-1.7c-0.1-0.4-0.1-0.9-0.1-1.3c-0.6,1-1.4,1.8-2.3,2.4
		c-0.9,0.6-2,0.9-3.1,0.9c-1.6,0-2.9-0.5-3.7-1.5c-0.9-1-1.3-2.4-1.3-4.1c0-1.8,0.6-3.3,1.9-4.3s3-1.6,5.2-1.6h3.4v-2.4
		c0-1.4-0.3-2.5-1-3.2s-1.7-1.2-2.9-1.2c-1.2,0-2.1,0.4-2.9,1.1c-0.8,0.7-1.1,1.7-1.1,2.7l-2,0l0-0.1c-0.1-1.5,0.5-2.8,1.7-3.9
		c1.2-1.1,2.7-1.7,4.5-1.7c1.8,0,3.3,0.5,4.4,1.6c1.1,1.1,1.7,2.7,1.7,4.7v9.6c0,0.7,0,1.4,0.1,2c0.1,0.6,0.2,1.3,0.3,1.9H204.4z
		 M199,123.9c1.2,0,2.3-0.3,3.2-1c0.9-0.7,1.6-1.6,2-2.6V116h-3.5c-1.5,0-2.7,0.4-3.5,1.3c-0.9,0.8-1.3,1.9-1.3,3.1
		c0,1,0.3,1.9,0.8,2.6S198,123.9,199,123.9z"/>
	<path fill="#FFFFFF" d="M217.4,124c1.1,0,2.1-0.4,3-1.2c0.9-0.8,1.3-1.9,1.3-3.4h1.9l0.1,0.1c0,1.8-0.6,3.3-1.8,4.5
		s-2.7,1.8-4.4,1.8c-2.2,0-4-0.8-5.2-2.4c-1.2-1.6-1.8-3.7-1.8-6.2v-3c0-2.5,0.6-4.6,1.8-6.2c1.2-1.6,2.9-2.4,5.2-2.4
		c1.8,0,3.3,0.6,4.5,1.9c1.2,1.3,1.8,2.9,1.7,5l0,0.1h-1.9c0-1.5-0.4-2.8-1.2-3.7c-0.8-0.9-1.8-1.4-3-1.4c-1.7,0-2.9,0.6-3.7,1.9
		c-0.8,1.3-1.2,2.9-1.2,4.8v3c0,2,0.4,3.6,1.2,4.8C214.5,123.4,215.7,124,217.4,124z"/>
	<path fill="#FFFFFF" d="M229.8,106v17.6h6.7V106h2.2v17.6h6.6V106h2.2v19.5h-19.8V106H229.8z"/>
	<path fill="#FFFFFF" d="M262.7,106h2.2v19.5h-2.2v-15.3l-0.1,0l-8.1,15.3h-2.2V106h2.2v15.3l0.1,0L262.7,106z"/>
	<path fill="#FFFFFF" d="M283.2,117.4c0,2.6-0.5,4.6-1.6,6.1c-1.1,1.5-2.6,2.3-4.5,2.3c-1.1,0-2-0.2-2.9-0.7c-0.8-0.5-1.5-1.1-2-2
		v9.8h-2.2v-27h1.8l0.2,2.7c0.5-1,1.2-1.7,2.1-2.3c0.8-0.5,1.8-0.8,2.9-0.8c2,0,3.5,0.8,4.6,2.5c1.1,1.7,1.7,3.9,1.7,6.7V117.4z
		 M281,114.8c0-2.1-0.4-3.9-1.2-5.2c-0.8-1.3-1.9-2-3.4-2c-1.1,0-2,0.3-2.7,1c-0.7,0.6-1.2,1.5-1.6,2.5v9.8c0.4,1,0.9,1.8,1.7,2.3
		c0.7,0.6,1.6,0.8,2.6,0.8c1.5,0,2.7-0.6,3.4-1.8s1.2-2.8,1.2-4.8V114.8z"/>
	<path fill="#FFFFFF" d="M293.7,125.8c-2.1,0-3.8-0.8-5.2-2.4c-1.3-1.6-2-3.6-2-6v-3.2c0-2.5,0.7-4.5,2-6.1c1.3-1.6,3-2.4,4.8-2.4
		c2,0,3.6,0.7,4.8,2.2c1.1,1.5,1.7,3.4,1.7,5.9v2.1h-11.1v1.6c0,1.9,0.5,3.5,1.4,4.7c0.9,1.3,2.1,1.9,3.7,1.9c1.1,0,2-0.2,2.8-0.6
		c0.8-0.4,1.4-0.9,2-1.6l0.9,1.5c-0.6,0.8-1.3,1.4-2.3,1.8C296.1,125.6,295,125.8,293.7,125.8z M293.4,107.5c-1.4,0-2.5,0.6-3.3,1.9
		c-0.9,1.2-1.3,2.8-1.4,4.6h9v-0.8c0-1.6-0.4-2.9-1.1-4C295.8,108,294.7,107.5,293.4,107.5z"/>
	<path fill="#FFFFFF" d="M316.3,125.5h-2.2v-8.9h-8.2v8.9h-2.2V106h2.2v8.7h8.2V106h2.2V125.5z"/>
	<path fill="#FFFFFF" d="M333.9,125.5h-2.2v-8.9h-8.2v8.9h-2.2V106h2.2v8.7h8.2V106h2.2V125.5z"/>
	<path fill="#FFFFFF" d="M341.2,113h4.4c1.9,0,3.3,0.6,4.4,1.7c1,1.1,1.6,2.6,1.6,4.5c0,1.8-0.5,3.4-1.6,4.5
		c-1.1,1.2-2.5,1.7-4.4,1.7h-6.6V106h2.2V113z M341.2,114.9v8.7h4.4c1.3,0,2.2-0.4,2.8-1.2c0.6-0.8,0.9-1.9,0.9-3.1
		c0-1.2-0.3-2.2-0.9-3.1c-0.6-0.9-1.6-1.3-2.8-1.3H341.2z M357.2,125.5H355V106h2.2V125.5z"/>
	<path fill="#FFFFFF" d="M373,106h2.2v19.5H373v-15.3l-0.1,0l-8.1,15.3h-2.2V106h2.2v15.3l0.1,0L373,106z M373.3,98.2l0.1,0.1
		c0,1.3-0.4,2.4-1.2,3.3c-0.8,0.8-1.9,1.3-3.3,1.3c-1.4,0-2.5-0.4-3.3-1.3c-0.8-0.8-1.2-1.9-1.2-3.3l0.1-0.1h1.7
		c0,0.9,0.2,1.7,0.7,2.2s1.1,0.8,2.1,0.8c0.9,0,1.6-0.3,2-0.9s0.7-1.3,0.7-2.2H373.3z"/>
	<path fill="#FFFFFF" d="M400.2,118.2h-9.6l-2.2,7.3h-2.2l8.3-26.2h2l8.2,26.2h-2.2L400.2,118.2z M391.3,116.2h8.4l-4.1-13.5h-0.1
		L391.3,116.2z"/>
	<path fill="#FFFFFF" d="M423.5,116c0,3.2-0.7,5.6-2.2,7.3c-1.5,1.7-3.5,2.5-6.1,2.5c-2.5,0-4.5-0.8-6-2.5s-2.2-4.1-2.2-7.3v-7.3
		c0-3.2,0.7-5.6,2.2-7.3c1.4-1.7,3.4-2.5,6-2.5c2.6,0,4.6,0.8,6.1,2.5c1.5,1.7,2.2,4.1,2.2,7.3V116z M421.3,108.6
		c0-2.6-0.5-4.5-1.6-5.9c-1.1-1.3-2.6-2-4.6-2c-1.9,0-3.4,0.7-4.4,2c-1,1.3-1.5,3.3-1.5,5.9v7.4c0,2.6,0.5,4.6,1.5,5.9
		c1,1.3,2.5,2,4.5,2c2,0,3.5-0.7,4.6-2s1.6-3.3,1.6-5.9V108.6z"/>
	<path fill="#FFFFFF" d="M444.4,125.5h-2.1v-12.1h-11.8v12.1h-2.2V99.2h2.2v12.3h11.8V99.2h2.1V125.5z"/>
</g>
</svg>
